<svg width="211" height="180" viewBox="0 0 211 180" fill="none" xmlns="http://www.w3.org/2000/svg">
<path d="M125.574 152.603C120.75 152.603 116.294 150.029 113.882 145.853L97.5425 117.551C95.131 113.374 95.131 108.228 97.5425 104.051L113.882 75.75C116.294 71.5731 120.751 69 125.574 69L158.253 69C163.076 69 167.533 71.5731 169.944 75.75L186.284 104.051C188.696 108.228 188.696 113.374 186.284 117.551L169.944 145.853C167.533 150.029 163.076 152.603 158.253 152.603L125.574 152.603Z" stroke="#1DB4BF" stroke-width="3"/>
<path d="M51.9615 110.103C47.1384 110.103 42.6817 107.529 40.2702 103.353L23.9304 75.0513C21.5189 70.8744 21.5189 65.7282 23.9304 61.5513L40.2702 33.25C42.6817 29.0731 47.1384 26.5 51.9615 26.5L84.641 26.5C89.4641 26.5 93.9208 29.0731 96.3324 33.25L112.672 61.5513C115.084 65.7282 115.084 70.8744 112.672 75.0513L96.3324 103.353C93.9208 107.529 89.4641 110.103 84.641 110.103L51.9615 110.103Z" stroke="#1DB4BF" stroke-width="3"/>
<path d="M76.7005 153.253C71.8775 153.253 67.4207 150.68 65.0092 146.503L48.6695 118.202C46.2579 114.025 46.2579 108.879 48.6695 104.702L65.0092 76.4006C67.4207 72.2237 71.8775 69.6506 76.7005 69.6506L109.38 69.6506C114.203 69.6506 118.66 72.2237 121.071 76.4006L137.411 104.702C139.823 108.879 139.823 114.025 137.411 118.202L121.071 146.503C118.66 150.68 114.203 153.253 109.38 153.253L76.7005 153.253Z" stroke="#1DB4BF" stroke-width="3"/>
<path d="M120.144 59.544C119.84 59.848 119.46 60 119.004 60C118.548 60 118.155 59.848 117.826 59.544C117.522 59.2147 117.37 58.822 117.37 58.366V33.894C117.37 33.438 117.522 33.058 117.826 32.754C118.155 32.4247 118.548 32.26 119.004 32.26C119.46 32.26 119.84 32.4247 120.144 32.754C120.473 33.058 120.638 33.438 120.638 33.894V58.366C120.638 58.822 120.473 59.2147 120.144 59.544ZM138.627 60.38C134.979 60.38 132.053 59.1387 129.849 56.656C127.645 54.148 126.543 50.6393 126.543 46.13C126.543 41.646 127.595 38.15 129.697 35.642C131.825 33.134 134.764 31.88 138.513 31.88C140.489 31.88 142.25 32.07 143.795 32.45C144.175 32.5513 144.479 32.7667 144.707 33.096C144.961 33.4253 145.087 33.7927 145.087 34.198C145.087 34.5273 144.948 34.7933 144.669 34.996C144.416 35.1733 144.125 35.2113 143.795 35.11C142.301 34.654 140.629 34.426 138.779 34.426C135.917 34.426 133.675 35.452 132.053 37.504C130.432 39.556 129.621 42.4313 129.621 46.13C129.621 49.8033 130.457 52.6787 132.129 54.756C133.827 56.808 136.081 57.834 138.893 57.834C140.768 57.834 142.465 57.606 143.985 57.15C144.315 57.0487 144.606 57.0993 144.859 57.302C145.138 57.4793 145.277 57.7327 145.277 58.062C145.277 58.4673 145.151 58.8347 144.897 59.164C144.669 59.468 144.365 59.6707 143.985 59.772C142.288 60.1773 140.502 60.38 138.627 60.38ZM153.724 60C153.141 60 152.635 59.7847 152.204 59.354C151.773 58.9233 151.558 58.4167 151.558 57.834V34.426C151.558 33.8433 151.773 33.3367 152.204 32.906C152.635 32.4753 153.141 32.26 153.724 32.26H166.492C166.847 32.26 167.151 32.3867 167.404 32.64C167.657 32.8933 167.784 33.1847 167.784 33.514C167.784 33.8433 167.657 34.1473 167.404 34.426C167.151 34.6793 166.847 34.806 166.492 34.806H154.94C154.712 34.806 154.598 34.9073 154.598 35.11V43.546C154.598 43.7487 154.712 43.85 154.94 43.85H165.808C166.163 43.85 166.454 43.9767 166.682 44.23C166.91 44.458 167.024 44.7367 167.024 45.066C167.024 45.3953 166.91 45.6867 166.682 45.94C166.454 46.168 166.163 46.282 165.808 46.282H154.94C154.712 46.282 154.598 46.396 154.598 46.624V57.15C154.598 57.3527 154.712 57.454 154.94 57.454H166.492C166.847 57.454 167.151 57.5933 167.404 57.872C167.657 58.1253 167.784 58.4167 167.784 58.746C167.784 59.0753 167.657 59.3667 167.404 59.62C167.151 59.8733 166.847 60 166.492 60H153.724Z" fill="black"/>
</svg>
